<svg width="636" height="770" viewBox="0 0 636 770" fill="none" xmlns="http://www.w3.org/2000/svg">
<path d="M395.522 635.606V520.185C430.328 518.077 459.861 504.374 484.119 479.076C509.433 452.724 522.09 421.102 522.09 384.209C522.09 366.29 518.398 349.425 511.015 333.614C504.687 317.803 495.721 304.1 484.119 292.505C473.572 279.856 460.388 269.843 444.567 262.464C428.746 254.031 412.398 249.288 395.522 248.234V134.394C428.219 135.448 459.333 142.827 488.866 156.53C518.398 170.233 543.711 188.679 564.806 211.869C586.955 234.004 604.358 259.829 617.015 289.343C629.672 318.857 636 350.479 636 384.209C636 417.94 629.672 450.089 617.015 480.657C604.358 510.171 586.955 536.523 564.806 559.713C543.711 581.848 518.398 599.767 488.866 613.47C459.333 627.173 428.219 634.552 395.522 635.606ZM374.955 654.579V770C323.274 768.946 274.756 758.405 229.403 738.378C184.05 717.296 143.97 689.363 109.164 654.579C75.4129 619.795 48.5174 579.213 28.4776 532.834C9.49254 486.455 0 436.913 0 384.209C0 331.506 9.49254 282.491 28.4776 237.166C48.5174 190.787 75.4129 150.205 109.164 115.421C143.97 80.6365 184.05 53.2307 229.403 33.2033C274.756 12.1218 323.274 1.05406 374.955 0V113.84C339.095 114.894 305.343 122.799 273.701 137.556C242.06 152.313 214.109 171.814 189.851 196.058C166.647 220.301 148.189 248.761 134.478 281.437C120.766 313.06 113.91 347.317 113.91 384.209C113.91 421.102 120.766 455.886 134.478 488.563C148.189 520.185 166.647 548.118 189.851 572.361C214.109 596.605 242.06 616.105 273.701 630.862C305.343 645.619 339.095 653.525 374.955 654.579Z" fill="#DCE1E4"/>
</svg>
