<svg width="747" height="96" viewBox="0 0 747 96" fill="none" xmlns="http://www.w3.org/2000/svg">
<path d="M35.795 3.58407L9.17099 95.1041L0.338989 92.4161L26.835 1.02406L35.795 3.58407ZM22.867 54.2721H50.643V63.4881H22.867V54.2721ZM73.171 92.4161L64.339 95.1041L37.715 3.58407L46.675 1.02406L73.171 92.4161Z" fill="#DCE1E4"/>
<path d="M157.329 95.2321C154.598 95.2321 152.038 94.7201 149.649 93.6961C147.26 92.6721 145.126 91.3067 143.249 89.6001C141.457 87.8081 140.006 85.7174 138.897 83.3281C137.788 80.9387 137.148 78.3787 136.977 75.6481H146.321C146.492 78.5494 147.644 80.9814 149.777 82.9441C151.91 84.9067 154.428 85.8881 157.329 85.8881C160.23 85.8881 162.748 84.9067 164.881 82.9441C167.014 80.9814 168.166 78.5494 168.337 75.6481H177.681C177.596 78.3787 176.956 80.9387 175.761 83.3281C174.652 85.7174 173.158 87.8081 171.281 89.6001C169.489 91.3067 167.398 92.6721 165.009 93.6961C162.62 94.7201 160.06 95.2321 157.329 95.2321ZM126.097 32.7681H135.441V74.1121H126.097V32.7681ZM179.217 32.7681H188.561V95.2321H179.217V32.7681Z" fill="#DCE1E4"/>
<path d="M300.156 0.768066V95.2321H290.94V0.768066H300.156ZM269.82 84.3521V75.0081C272.636 74.8374 275.025 73.7281 276.988 71.6801C279.036 69.5467 280.06 66.9867 280.06 64.0001C280.06 62.5494 279.761 61.1841 279.164 59.9041C278.652 58.6241 277.927 57.5147 276.988 56.5761C276.135 55.5521 275.068 54.7414 273.788 54.1441C272.508 53.4614 271.185 53.0774 269.82 52.9921V43.7761C272.465 43.8614 274.983 44.4587 277.372 45.5681C279.761 46.6774 281.809 48.1707 283.516 50.0481C285.308 51.8401 286.716 53.9307 287.74 56.3201C288.764 58.7094 289.276 61.2694 289.276 64.0001C289.276 66.7307 288.764 69.3334 287.74 71.8081C286.716 74.1974 285.308 76.3307 283.516 78.2081C281.809 80.0001 279.761 81.4507 277.372 82.5601C274.983 83.6694 272.465 84.2667 269.82 84.3521ZM268.156 85.8881V95.2321C263.975 95.1467 260.049 94.2934 256.38 92.6721C252.711 90.9654 249.468 88.7041 246.652 85.8881C243.921 83.0721 241.745 79.7867 240.124 76.0321C238.588 72.2774 237.82 68.2667 237.82 64.0001C237.82 59.7334 238.588 55.7654 240.124 52.0961C241.745 48.3414 243.921 45.0561 246.652 42.2401C249.468 39.4241 252.711 37.2054 256.38 35.5841C260.049 33.8774 263.975 32.9814 268.156 32.8961V42.1121C265.255 42.1974 262.524 42.8374 259.964 44.0321C257.404 45.2267 255.143 46.8054 253.18 48.7681C251.303 50.7307 249.809 53.0347 248.7 55.6801C247.591 58.2401 247.036 61.0134 247.036 64.0001C247.036 66.9867 247.591 69.8027 248.7 72.4481C249.809 75.0081 251.303 77.2694 253.18 79.2321C255.143 81.1947 257.404 82.7734 259.964 83.9681C262.524 85.1627 265.255 85.8027 268.156 85.8881Z" fill="#DCE1E4"/>
<path d="M380.519 95.2321C376.167 95.2321 372.071 94.4214 368.231 92.8001C364.476 91.1787 361.191 88.9601 358.375 86.1441C355.559 83.3281 353.34 80.0427 351.719 76.2881C350.098 72.4481 349.287 68.3521 349.287 64.0001C349.287 59.6481 350.098 55.5947 351.719 51.8401C353.426 48.0001 355.687 44.6721 358.503 41.8561C361.319 39.0401 364.604 36.8214 368.359 35.2001C372.199 33.5787 376.252 32.7681 380.519 32.7681H390.631V42.1121H380.519C376.508 42.1121 372.796 43.1361 369.383 45.1841C365.97 47.1467 363.282 49.8774 361.319 53.3761L360.679 54.5281H390.631V63.8721H358.631V64.6401C358.716 67.5414 359.356 70.3147 360.551 72.9601C361.746 75.5201 363.324 77.7814 365.287 79.7441C367.25 81.6214 369.511 83.1147 372.071 84.2241C374.716 85.3334 377.532 85.8881 380.519 85.8881C383.506 85.8881 386.279 85.3334 388.839 84.2241C391.484 83.1147 393.788 81.6214 395.751 79.7441C397.714 77.8667 399.292 75.6481 400.487 73.0881C401.682 70.4427 402.322 67.6694 402.407 64.7681H411.751C411.666 68.9494 410.77 72.9174 409.063 76.6721C407.356 80.3414 405.095 83.5841 402.279 86.4001C399.463 89.1307 396.178 91.3067 392.423 92.9281C388.754 94.4641 384.786 95.2321 380.519 95.2321ZM392.167 43.6481H401.511V52.9921H392.167V43.6481Z" fill="#DCE1E4"/>
<path d="M487.506 51.3281H496.85V95.2321H487.506V51.3281ZM496.85 10.8801V32.6401H523.346V41.9841H461.01V32.7681H487.506V11.0081L496.85 10.8801Z" fill="#DCE1E4"/>
<path d="M572.602 85.8881H635.066V95.2321H572.602V85.8881ZM603.962 76.5441V42.1121H583.482V32.7681H613.306V76.5441H603.962ZM600.506 0.768066H616.762V17.0241H600.506V0.768066Z" fill="#DCE1E4"/>
<path d="M714.661 42.1121C711.76 42.1974 708.986 42.8374 706.341 44.0321C703.781 45.2267 701.562 46.8054 699.685 48.7681C697.808 50.7307 696.314 53.0347 695.205 55.6801C694.096 58.2401 693.541 61.0134 693.541 64.0001C693.541 67.0721 694.096 69.9307 695.205 72.5761C696.4 75.2214 697.978 77.5254 699.941 79.4881C701.989 81.4507 704.336 83.0294 706.981 84.2241C709.626 85.3334 712.442 85.8881 715.429 85.8881C718.416 85.8881 721.189 85.3334 723.749 84.2241C726.394 83.1147 728.698 81.6214 730.661 79.7441C732.624 77.8667 734.202 75.6481 735.397 73.0881C736.592 70.4427 737.232 67.6694 737.317 64.7681H746.661C746.576 68.9494 745.68 72.9174 743.973 76.6721C742.266 80.3414 740.005 83.5841 737.189 86.4001C734.373 89.1307 731.088 91.3067 727.333 92.9281C723.664 94.4641 719.696 95.2321 715.429 95.2321C711.077 95.2321 706.981 94.4214 703.141 92.8001C699.386 91.1787 696.101 88.9601 693.285 86.1441C690.469 83.3281 688.25 80.0427 686.629 76.2881C685.008 72.4481 684.197 68.3521 684.197 64.0001C684.197 59.7334 684.965 55.7654 686.501 52.0961C688.122 48.3414 690.298 45.0561 693.029 42.2401C695.845 39.4241 699.088 37.2054 702.757 35.5841C706.426 33.8774 710.352 32.9814 714.533 32.8961H724.773V42.1121H714.661Z" fill="#DCE1E4"/>
</svg>
